<svg width="17" height="21" viewBox="0 0 17 21" fill="none" xmlns="http://www.w3.org/2000/svg">
<path fill-rule="evenodd" clip-rule="evenodd" d="M8.03975 20.851C8.06995 20.8685 8.09369 20.8821 8.1105 20.8915L8.13843 20.9071C8.3613 21.0294 8.63776 21.0285 8.86084 20.9075L8.8895 20.8915C8.90631 20.8821 8.93005 20.8685 8.96025 20.851C9.02066 20.816 9.10697 20.765 9.2155 20.6982C9.43246 20.5646 9.73875 20.3676 10.1046 20.1091C10.8351 19.5931 11.8097 18.8274 12.7865 17.8273C14.7307 15.8368 16.75 12.8462 16.75 9C16.75 4.44365 13.0563 0.75 8.5 0.75C3.94365 0.75 0.25 4.44365 0.25 9C0.25 12.8462 2.26932 15.8368 4.21346 17.8273C5.19025 18.8274 6.16491 19.5931 6.89539 20.1091C7.26125 20.3676 7.56754 20.5646 7.7845 20.6982C7.89303 20.765 7.97934 20.816 8.03975 20.851ZM8.5 12C10.1569 12 11.5 10.6569 11.5 9C11.5 7.34315 10.1569 6 8.5 6C6.84315 6 5.5 7.34315 5.5 9C5.5 10.6569 6.84315 12 8.5 12Z" fill="url(#paint0_linear_2740_26075)"/>
<defs>
<linearGradient id="paint0_linear_2740_26075" x1="0.25" y1="10.8727" x2="16.75" y2="10.8727" gradientUnits="userSpaceOnUse">
<stop stop-color="#FF3200"/>
<stop offset="0.23" stop-color="#FD3200"/>
<stop offset="0.45" stop-color="#FF3200"/>
<stop offset="0.66" stop-color="#EF2F00"/>
<stop offset="0.86" stop-color="#E92E00"/>
<stop offset="1" stop-color="#E12C00"/>
</linearGradient>
</defs>
</svg>
