<svg width="138" height="76" viewBox="0 0 138 76" fill="none" xmlns="http://www.w3.org/2000/svg">
<g clip-path="url(#clip0_3293_3710)">
<path d="M11 62.6498L111.34 75.2598L109.11 39.5098L11 62.6498Z" fill="#F97B5C"/>
<path d="M123.2 58.26L11 62.65V59.84V9.84L120.78 0L123.2 58.26Z" fill="url(#paint0_linear_3293_3710)"/>
<path d="M25.41 18.1002L26.73 15.7402L1.32 18.3502L0 20.7202L25.41 18.1002Z" fill="#F97B5C"/>
<path d="M136.56 47.0499L137.88 44.6899L112.47 47.2999L111.15 49.6599L136.56 47.0499Z" fill="#F97B5C"/>
<path d="M127.64 43.38L128.96 41.02L118.22 42.1L116.9 44.47L127.64 43.38Z" fill="#F97B5C"/>
<path d="M16.8691 23.8998L18.1891 21.5298L7.44914 22.6198L6.11914 24.9798L16.8691 23.8998Z" fill="#F97B5C"/>
<mask id="path-7-outside-1_3293_3710" maskUnits="userSpaceOnUse" x="22.2344" y="19.0254" width="86" height="38" fill="black">
<rect fill="white" x="22.2344" y="19.0254" width="86" height="38"/>
<path d="M25.1158 36.4011C24.5119 36.4011 24.0474 36.2386 23.7222 35.9134C23.397 35.5882 23.2344 35.1236 23.2344 34.5197V21.9069C23.2344 21.3029 23.397 20.8384 23.7222 20.5132C24.0474 20.188 24.5119 20.0254 25.1158 20.0254H33.2224C33.687 20.0254 34.0354 20.1493 34.2677 20.397C34.5155 20.6293 34.6393 20.97 34.6393 21.4191C34.6393 21.8836 34.5155 22.2398 34.2677 22.4876C34.0354 22.7198 33.687 22.836 33.2224 22.836H26.6721V26.6686H32.6882C33.1682 26.6686 33.5244 26.7925 33.7567 27.0403C34.0044 27.2725 34.1283 27.621 34.1283 28.0855C34.1283 28.5501 34.0044 28.9062 33.7567 29.154C33.5244 29.3863 33.1682 29.5024 32.6882 29.5024H26.6721V33.5906H33.2224C33.687 33.5906 34.0354 33.7144 34.2677 33.9622C34.5155 34.1945 34.6393 34.5352 34.6393 34.9842C34.6393 35.4488 34.5155 35.805 34.2677 36.0527C34.0354 36.285 33.687 36.4011 33.2224 36.4011H25.1158Z"/>
<path d="M40.7841 36.6567C39.9478 36.6567 39.1968 36.4941 38.5309 36.1689C37.8651 35.8437 37.3463 35.4023 36.9747 34.8449C36.603 34.2874 36.4172 33.6602 36.4172 32.9634C36.4172 32.1272 36.634 31.4691 37.0676 30.989C37.5012 30.4935 38.2057 30.1451 39.1813 29.9438C40.1569 29.727 41.4499 29.6186 43.0604 29.6186H44.2915V31.4304H43.0836C42.2939 31.4304 41.6512 31.4768 41.1557 31.5697C40.6757 31.6471 40.3272 31.7865 40.1104 31.9878C39.9091 32.1891 39.8085 32.4679 39.8085 32.824C39.8085 33.2576 39.9556 33.6138 40.2498 33.8925C40.5595 34.1713 41.0008 34.3106 41.5738 34.3106C42.0229 34.3106 42.4178 34.21 42.7584 34.0087C42.927 33.9061 43.0781 33.7879 43.212 33.6541C43.361 33.5052 43.4886 33.3369 43.5946 33.1492C43.796 32.7776 43.8966 32.3595 43.8966 31.8949V29.2237C43.8966 28.5423 43.7418 28.0623 43.432 27.7836C43.1223 27.4893 42.5958 27.3422 41.8525 27.3422C41.4344 27.3422 40.9776 27.3964 40.4821 27.5048C40.002 27.5977 39.4678 27.7603 38.8794 27.9926C38.5387 28.1475 38.2367 28.1862 37.9735 28.1087C37.7102 28.0158 37.5089 27.861 37.3695 27.6442C37.2302 27.4119 37.1605 27.1641 37.1605 26.9009C37.1605 26.6221 37.2379 26.3589 37.3928 26.1111C37.442 26.0275 37.5014 25.9508 37.5709 25.8812C37.7202 25.7319 37.9163 25.6149 38.1593 25.5304C38.8871 25.2362 39.5685 25.0349 40.2034 24.9265C40.8537 24.8181 41.4499 24.7639 41.9919 24.7639C43.1843 24.7639 44.1599 24.942 44.9186 25.2982C45.6929 25.6388 46.2736 26.1731 46.6607 26.9009C47.0479 27.6132 47.2414 28.5346 47.2414 29.665V34.8216C47.2414 35.3946 47.1021 35.8359 46.8233 36.1456C46.5446 36.4553 46.142 36.6102 45.6155 36.6102C45.089 36.6102 44.6786 36.4553 44.3844 36.1456C44.1057 35.8359 43.9663 35.3946 43.9663 34.8216V33.9622L44.1289 34.1016C44.036 34.6281 43.8347 35.0849 43.525 35.472C43.4551 35.5603 43.3804 35.6442 43.3009 35.7238C43.0457 35.9791 42.741 36.1894 42.3868 36.3547C41.9222 36.556 41.388 36.6567 40.7841 36.6567Z"/>
<path d="M54.2247 36.6567C53.5434 36.6567 52.8388 36.5947 52.111 36.4708C51.3987 36.347 50.7483 36.1379 50.1598 35.8437C49.8501 35.6888 49.6256 35.4953 49.4862 35.263C49.3623 35.0152 49.3081 34.7674 49.3236 34.5197C49.3391 34.2719 49.4165 34.0474 49.5559 33.8461C49.589 33.803 49.6239 33.7631 49.6606 33.7265C49.7953 33.5916 49.954 33.4999 50.1366 33.4512C50.3844 33.3738 50.6554 33.397 50.9496 33.5209C51.5845 33.7841 52.1652 33.9699 52.6917 34.0783C53.2182 34.1867 53.7369 34.2409 54.248 34.2409C54.9138 34.2409 55.3939 34.1403 55.6881 33.939C55.7544 33.8926 55.8136 33.8434 55.8657 33.7913C56.057 33.6001 56.1527 33.3705 56.1527 33.1028C56.1527 32.7931 56.052 32.5608 55.8507 32.4059C55.6494 32.2511 55.3552 32.1427 54.968 32.0807L52.5291 31.6394C51.569 31.4691 50.8257 31.1206 50.2992 30.5941C49.7882 30.0522 49.5327 29.3631 49.5327 28.5268C49.5327 27.7526 49.7495 27.0867 50.1831 26.5292C50.2829 26.3973 50.3914 26.2727 50.5085 26.1556C50.8999 25.764 51.3876 25.4549 51.9716 25.2285C52.7459 24.9188 53.6208 24.7639 54.5964 24.7639C55.2932 24.7639 55.9359 24.8258 56.5243 24.9497C57.1128 25.0736 57.678 25.2749 58.22 25.5537C58.4987 25.693 58.6923 25.8789 58.8007 26.1111C58.9245 26.3434 58.9632 26.5834 58.9168 26.8312C58.8858 27.079 58.7929 27.3035 58.6381 27.5048C58.6072 27.545 58.5744 27.5824 58.5398 27.617C58.401 27.7559 58.2324 27.8501 58.0341 27.8997C57.8018 27.9616 57.5309 27.9307 57.2211 27.8068C56.7256 27.5745 56.2688 27.4119 55.8507 27.319C55.4326 27.2106 55.03 27.1564 54.6428 27.1564C53.946 27.1564 53.4427 27.2725 53.133 27.5048C53.0667 27.5512 53.0076 27.6004 52.9555 27.6525C52.7641 27.8437 52.6685 28.0732 52.6685 28.341C52.6685 28.6043 52.7536 28.8288 52.924 29.0146C53.1098 29.185 53.3885 29.3011 53.7602 29.3631L56.1991 29.8044C57.2057 29.9747 57.9722 30.3154 58.4987 30.8264C59.0252 31.322 59.2884 32.0033 59.2884 32.8705C59.2884 33.8424 58.9716 34.6453 58.338 35.2793C58.2043 35.413 58.0566 35.5392 57.8948 35.6579C56.9811 36.3237 55.7578 36.6567 54.2247 36.6567Z"/>
<path d="M64.1761 40.7912C63.7735 40.7912 63.4406 40.6828 63.1773 40.4661C62.9141 40.2493 62.7592 39.9628 62.7128 39.6066C62.6663 39.2659 62.7282 38.902 62.8986 38.5149L64.4549 35.0772V36.5173L60.3435 27.0867C60.1886 26.6841 60.1345 26.3124 60.1809 25.9718C60.2299 25.6899 60.3468 25.4566 60.5316 25.2717C60.5803 25.2229 60.6338 25.1776 60.6919 25.1356C60.9861 24.9188 61.3888 24.8104 61.8998 24.8104C62.3179 24.8104 62.6508 24.911 62.8986 25.1123C63.1618 25.2982 63.4019 25.6621 63.6187 26.204L66.3596 33.1725H65.6163L68.4501 26.1808C68.6234 25.7598 68.8117 25.4477 69.0147 25.2445C69.0656 25.1936 69.1174 25.1496 69.1702 25.1123C69.4489 24.911 69.8205 24.8104 70.2851 24.8104C70.6877 24.8104 71.0052 24.9188 71.2374 25.1356C71.4852 25.3369 71.6323 25.6079 71.6788 25.9485C71.7407 26.2892 71.6788 26.6609 71.493 27.0635L66.0344 39.444C65.8647 39.8286 65.6785 40.1223 65.4758 40.3251C65.401 40.3999 65.3239 40.4624 65.2446 40.5125C64.9659 40.6983 64.6097 40.7912 64.1761 40.7912Z"/>
<path d="M70.4588 51.6102C69.8703 51.6102 69.4212 51.4476 69.1115 51.1224C68.8018 50.7972 68.647 50.3404 68.647 49.752V36.8604C68.647 36.2565 68.8018 35.7997 69.1115 35.49C69.4367 35.1802 69.8935 35.0254 70.482 35.0254H76.1264C77.9537 35.0254 79.3628 35.49 80.3539 36.4191C81.345 37.3327 81.8405 38.6102 81.8405 40.2517C81.8405 41.8931 81.345 43.1784 80.3539 44.1075C79.3628 45.0367 77.9537 45.5012 76.1264 45.5012H72.2473V49.752C72.2473 50.3404 72.0925 50.7972 71.7828 51.1224C71.4885 51.4476 71.0472 51.6102 70.4588 51.6102ZM72.2473 42.7139H75.5225C76.4516 42.7139 77.1562 42.5048 77.6362 42.0867C78.1318 41.6686 78.3795 41.0569 78.3795 40.2517C78.3795 39.4465 78.1318 38.8425 77.6362 38.4399C77.1562 38.0373 76.4516 37.836 75.5225 37.836H72.2473V42.7139Z"/>
<path d="M87.104 51.6567C86.2678 51.6567 85.5168 51.4941 84.8509 51.1689C84.185 50.8437 83.6663 50.4023 83.2946 49.8449C82.923 49.2874 82.7371 48.6602 82.7371 47.9634C82.7371 47.1272 82.9539 46.4691 83.3875 45.989C83.8211 45.4935 84.5257 45.1451 85.5013 44.9438C86.4768 44.727 87.7699 44.6186 89.3803 44.6186H90.6114V46.4304H89.4036C88.6138 46.4304 87.9712 46.4768 87.4756 46.5697C86.9956 46.6471 86.6472 46.7865 86.4304 46.9878C86.2291 47.1891 86.1284 47.4679 86.1284 47.824C86.1284 48.2576 86.2755 48.6138 86.5698 48.8925C86.8795 49.1713 87.3208 49.3106 87.8938 49.3106C88.3428 49.3106 88.7377 49.21 89.0784 49.0087C89.2469 48.9061 89.3981 48.7879 89.5319 48.6541C89.681 48.5052 89.8085 48.3369 89.9146 48.1492C90.1159 47.7776 90.2166 47.3595 90.2166 46.8949V44.2237C90.2166 43.5423 90.0617 43.0623 89.752 42.7836C89.4423 42.4893 88.9158 42.3422 88.1725 42.3422C87.7544 42.3422 87.2976 42.3964 86.802 42.5048C86.322 42.5977 85.7877 42.7603 85.1993 42.9926C84.8586 43.1475 84.5567 43.1862 84.2934 43.1087C84.0302 43.0158 83.8289 42.861 83.6895 42.6442C83.5501 42.4119 83.4804 42.1641 83.4804 41.9009C83.4804 41.6222 83.5579 41.3589 83.7127 41.1111C83.7619 41.0275 83.8213 40.9508 83.8909 40.8812C84.0402 40.7319 84.2363 40.6149 84.4792 40.5304C85.207 40.2362 85.8884 40.0349 86.5233 39.9265C87.1737 39.8181 87.7699 39.7639 88.3119 39.7639C89.5042 39.7639 90.4798 39.942 91.2386 40.2982C92.0129 40.6388 92.5936 41.1731 92.9807 41.9009C93.3678 42.6132 93.5614 43.5346 93.5614 44.665V49.8216C93.5614 50.3946 93.422 50.8359 93.1433 51.1456C92.8645 51.4553 92.4619 51.6102 91.9354 51.6102C91.4089 51.6102 90.9986 51.4553 90.7043 51.1456C90.4256 50.8359 90.2862 50.3946 90.2862 49.8216V48.9622L90.4488 49.1016C90.3559 49.6281 90.1546 50.0849 89.8449 50.472C89.775 50.5603 89.7003 50.6442 89.6208 50.7238C89.3656 50.9791 89.0609 51.1894 88.7067 51.3547C88.2422 51.556 87.7079 51.6567 87.104 51.6567Z"/>
<path d="M99.1769 55.7912C98.7743 55.7912 98.4414 55.6828 98.1781 55.4661C97.9149 55.2493 97.76 54.9628 97.7136 54.6066C97.6671 54.2659 97.7291 53.902 97.8994 53.5149L99.4557 50.0772V51.5173L95.3443 42.0867C95.1895 41.6841 95.1353 41.3124 95.1817 40.9718C95.2307 40.6899 95.3476 40.4566 95.5324 40.2717C95.5811 40.2229 95.6346 40.1776 95.6927 40.1356C95.987 39.9188 96.3896 39.8104 96.9006 39.8104C97.3187 39.8104 97.6516 39.911 97.8994 40.1123C98.1627 40.2982 98.4027 40.6621 98.6195 41.204L101.36 48.1725H100.617L103.451 41.1808C103.624 40.7598 103.812 40.4477 104.016 40.2445C104.066 40.1936 104.118 40.1496 104.171 40.1123C104.45 39.911 104.821 39.8104 105.286 39.8104C105.689 39.8104 106.006 39.9188 106.238 40.1356C106.486 40.3369 106.633 40.6079 106.68 40.9485C106.742 41.2892 106.68 41.6609 106.494 42.0635L101.035 54.444C100.866 54.8286 100.679 55.1223 100.477 55.3251C100.402 55.3999 100.325 55.4624 100.245 55.5125C99.9667 55.6983 99.6105 55.7912 99.1769 55.7912Z"/>
</mask>
<path d="M25.1158 36.4011C24.5119 36.4011 24.0474 36.2386 23.7222 35.9134C23.397 35.5882 23.2344 35.1236 23.2344 34.5197V21.9069C23.2344 21.3029 23.397 20.8384 23.7222 20.5132C24.0474 20.188 24.5119 20.0254 25.1158 20.0254H33.2224C33.687 20.0254 34.0354 20.1493 34.2677 20.397C34.5155 20.6293 34.6393 20.97 34.6393 21.4191C34.6393 21.8836 34.5155 22.2398 34.2677 22.4876C34.0354 22.7198 33.687 22.836 33.2224 22.836H26.6721V26.6686H32.6882C33.1682 26.6686 33.5244 26.7925 33.7567 27.0403C34.0044 27.2725 34.1283 27.621 34.1283 28.0855C34.1283 28.5501 34.0044 28.9062 33.7567 29.154C33.5244 29.3863 33.1682 29.5024 32.6882 29.5024H26.6721V33.5906H33.2224C33.687 33.5906 34.0354 33.7144 34.2677 33.9622C34.5155 34.1945 34.6393 34.5352 34.6393 34.9842C34.6393 35.4488 34.5155 35.805 34.2677 36.0527C34.0354 36.285 33.687 36.4011 33.2224 36.4011H25.1158Z" stroke="black" stroke-width="1.246" mask="url(#path-7-outside-1_3293_3710)"/>
<path d="M40.7841 36.6567C39.9478 36.6567 39.1968 36.4941 38.5309 36.1689C37.8651 35.8437 37.3463 35.4023 36.9747 34.8449C36.603 34.2874 36.4172 33.6602 36.4172 32.9634C36.4172 32.1272 36.634 31.4691 37.0676 30.989C37.5012 30.4935 38.2057 30.1451 39.1813 29.9438C40.1569 29.727 41.4499 29.6186 43.0604 29.6186H44.2915V31.4304H43.0836C42.2939 31.4304 41.6512 31.4768 41.1557 31.5697C40.6757 31.6471 40.3272 31.7865 40.1104 31.9878C39.9091 32.1891 39.8085 32.4679 39.8085 32.824C39.8085 33.2576 39.9556 33.6138 40.2498 33.8925C40.5595 34.1713 41.0008 34.3106 41.5738 34.3106C42.0229 34.3106 42.4178 34.21 42.7584 34.0087C42.927 33.9061 43.0781 33.7879 43.212 33.6541C43.361 33.5052 43.4886 33.3369 43.5946 33.1492C43.796 32.7776 43.8966 32.3595 43.8966 31.8949V29.2237C43.8966 28.5423 43.7418 28.0623 43.432 27.7836C43.1223 27.4893 42.5958 27.3422 41.8525 27.3422C41.4344 27.3422 40.9776 27.3964 40.4821 27.5048C40.002 27.5977 39.4678 27.7603 38.8794 27.9926C38.5387 28.1475 38.2367 28.1862 37.9735 28.1087C37.7102 28.0158 37.5089 27.861 37.3695 27.6442C37.2302 27.4119 37.1605 27.1641 37.1605 26.9009C37.1605 26.6221 37.2379 26.3589 37.3928 26.1111C37.442 26.0275 37.5014 25.9508 37.5709 25.8812C37.7202 25.7319 37.9163 25.6149 38.1593 25.5304C38.8871 25.2362 39.5685 25.0349 40.2034 24.9265C40.8537 24.8181 41.4499 24.7639 41.9919 24.7639C43.1843 24.7639 44.1599 24.942 44.9186 25.2982C45.6929 25.6388 46.2736 26.1731 46.6607 26.9009C47.0479 27.6132 47.2414 28.5346 47.2414 29.665V34.8216C47.2414 35.3946 47.1021 35.8359 46.8233 36.1456C46.5446 36.4553 46.142 36.6102 45.6155 36.6102C45.089 36.6102 44.6786 36.4553 44.3844 36.1456C44.1057 35.8359 43.9663 35.3946 43.9663 34.8216V33.9622L44.1289 34.1016C44.036 34.6281 43.8347 35.0849 43.525 35.472C43.4551 35.5603 43.3804 35.6442 43.3009 35.7238C43.0457 35.9791 42.741 36.1894 42.3868 36.3547C41.9222 36.556 41.388 36.6567 40.7841 36.6567Z" stroke="black" stroke-width="1.246" mask="url(#path-7-outside-1_3293_3710)"/>
<path d="M54.2247 36.6567C53.5434 36.6567 52.8388 36.5947 52.111 36.4708C51.3987 36.347 50.7483 36.1379 50.1598 35.8437C49.8501 35.6888 49.6256 35.4953 49.4862 35.263C49.3623 35.0152 49.3081 34.7674 49.3236 34.5197C49.3391 34.2719 49.4165 34.0474 49.5559 33.8461C49.589 33.803 49.6239 33.7631 49.6606 33.7265C49.7953 33.5916 49.954 33.4999 50.1366 33.4512C50.3844 33.3738 50.6554 33.397 50.9496 33.5209C51.5845 33.7841 52.1652 33.9699 52.6917 34.0783C53.2182 34.1867 53.7369 34.2409 54.248 34.2409C54.9138 34.2409 55.3939 34.1403 55.6881 33.939C55.7544 33.8926 55.8136 33.8434 55.8657 33.7913C56.057 33.6001 56.1527 33.3705 56.1527 33.1028C56.1527 32.7931 56.052 32.5608 55.8507 32.4059C55.6494 32.2511 55.3552 32.1427 54.968 32.0807L52.5291 31.6394C51.569 31.4691 50.8257 31.1206 50.2992 30.5941C49.7882 30.0522 49.5327 29.3631 49.5327 28.5268C49.5327 27.7526 49.7495 27.0867 50.1831 26.5292C50.2829 26.3973 50.3914 26.2727 50.5085 26.1556C50.8999 25.764 51.3876 25.4549 51.9716 25.2285C52.7459 24.9188 53.6208 24.7639 54.5964 24.7639C55.2932 24.7639 55.9359 24.8258 56.5243 24.9497C57.1128 25.0736 57.678 25.2749 58.22 25.5537C58.4987 25.693 58.6923 25.8789 58.8007 26.1111C58.9245 26.3434 58.9632 26.5834 58.9168 26.8312C58.8858 27.079 58.7929 27.3035 58.6381 27.5048C58.6072 27.545 58.5744 27.5824 58.5398 27.617C58.401 27.7559 58.2324 27.8501 58.0341 27.8997C57.8018 27.9616 57.5309 27.9307 57.2211 27.8068C56.7256 27.5745 56.2688 27.4119 55.8507 27.319C55.4326 27.2106 55.03 27.1564 54.6428 27.1564C53.946 27.1564 53.4427 27.2725 53.133 27.5048C53.0667 27.5512 53.0076 27.6004 52.9555 27.6525C52.7641 27.8437 52.6685 28.0732 52.6685 28.341C52.6685 28.6043 52.7536 28.8288 52.924 29.0146C53.1098 29.185 53.3885 29.3011 53.7602 29.3631L56.1991 29.8044C57.2057 29.9747 57.9722 30.3154 58.4987 30.8264C59.0252 31.322 59.2884 32.0033 59.2884 32.8705C59.2884 33.8424 58.9716 34.6453 58.338 35.2793C58.2043 35.413 58.0566 35.5392 57.8948 35.6579C56.9811 36.3237 55.7578 36.6567 54.2247 36.6567Z" stroke="black" stroke-width="1.246" mask="url(#path-7-outside-1_3293_3710)"/>
<path d="M64.1761 40.7912C63.7735 40.7912 63.4406 40.6828 63.1773 40.4661C62.9141 40.2493 62.7592 39.9628 62.7128 39.6066C62.6663 39.2659 62.7282 38.902 62.8986 38.5149L64.4549 35.0772V36.5173L60.3435 27.0867C60.1886 26.6841 60.1345 26.3124 60.1809 25.9718C60.2299 25.6899 60.3468 25.4566 60.5316 25.2717C60.5803 25.2229 60.6338 25.1776 60.6919 25.1356C60.9861 24.9188 61.3888 24.8104 61.8998 24.8104C62.3179 24.8104 62.6508 24.911 62.8986 25.1123C63.1618 25.2982 63.4019 25.6621 63.6187 26.204L66.3596 33.1725H65.6163L68.4501 26.1808C68.6234 25.7598 68.8117 25.4477 69.0147 25.2445C69.0656 25.1936 69.1174 25.1496 69.1702 25.1123C69.4489 24.911 69.8205 24.8104 70.2851 24.8104C70.6877 24.8104 71.0052 24.9188 71.2374 25.1356C71.4852 25.3369 71.6323 25.6079 71.6788 25.9485C71.7407 26.2892 71.6788 26.6609 71.493 27.0635L66.0344 39.444C65.8647 39.8286 65.6785 40.1223 65.4758 40.3251C65.401 40.3999 65.3239 40.4624 65.2446 40.5125C64.9659 40.6983 64.6097 40.7912 64.1761 40.7912Z" stroke="black" stroke-width="1.246" mask="url(#path-7-outside-1_3293_3710)"/>
<path d="M70.4588 51.6102C69.8703 51.6102 69.4212 51.4476 69.1115 51.1224C68.8018 50.7972 68.647 50.3404 68.647 49.752V36.8604C68.647 36.2565 68.8018 35.7997 69.1115 35.49C69.4367 35.1802 69.8935 35.0254 70.482 35.0254H76.1264C77.9537 35.0254 79.3628 35.49 80.3539 36.4191C81.345 37.3327 81.8405 38.6102 81.8405 40.2517C81.8405 41.8931 81.345 43.1784 80.3539 44.1075C79.3628 45.0367 77.9537 45.5012 76.1264 45.5012H72.2473V49.752C72.2473 50.3404 72.0925 50.7972 71.7828 51.1224C71.4885 51.4476 71.0472 51.6102 70.4588 51.6102ZM72.2473 42.7139H75.5225C76.4516 42.7139 77.1562 42.5048 77.6362 42.0867C78.1318 41.6686 78.3795 41.0569 78.3795 40.2517C78.3795 39.4465 78.1318 38.8425 77.6362 38.4399C77.1562 38.0373 76.4516 37.836 75.5225 37.836H72.2473V42.7139Z" stroke="black" stroke-width="1.246" mask="url(#path-7-outside-1_3293_3710)"/>
<path d="M87.104 51.6567C86.2678 51.6567 85.5168 51.4941 84.8509 51.1689C84.185 50.8437 83.6663 50.4023 83.2946 49.8449C82.923 49.2874 82.7371 48.6602 82.7371 47.9634C82.7371 47.1272 82.9539 46.4691 83.3875 45.989C83.8211 45.4935 84.5257 45.1451 85.5013 44.9438C86.4768 44.727 87.7699 44.6186 89.3803 44.6186H90.6114V46.4304H89.4036C88.6138 46.4304 87.9712 46.4768 87.4756 46.5697C86.9956 46.6471 86.6472 46.7865 86.4304 46.9878C86.2291 47.1891 86.1284 47.4679 86.1284 47.824C86.1284 48.2576 86.2755 48.6138 86.5698 48.8925C86.8795 49.1713 87.3208 49.3106 87.8938 49.3106C88.3428 49.3106 88.7377 49.21 89.0784 49.0087C89.2469 48.9061 89.3981 48.7879 89.5319 48.6541C89.681 48.5052 89.8085 48.3369 89.9146 48.1492C90.1159 47.7776 90.2166 47.3595 90.2166 46.8949V44.2237C90.2166 43.5423 90.0617 43.0623 89.752 42.7836C89.4423 42.4893 88.9158 42.3422 88.1725 42.3422C87.7544 42.3422 87.2976 42.3964 86.802 42.5048C86.322 42.5977 85.7877 42.7603 85.1993 42.9926C84.8586 43.1475 84.5567 43.1862 84.2934 43.1087C84.0302 43.0158 83.8289 42.861 83.6895 42.6442C83.5501 42.4119 83.4804 42.1641 83.4804 41.9009C83.4804 41.6222 83.5579 41.3589 83.7127 41.1111C83.7619 41.0275 83.8213 40.9508 83.8909 40.8812C84.0402 40.7319 84.2363 40.6149 84.4792 40.5304C85.207 40.2362 85.8884 40.0349 86.5233 39.9265C87.1737 39.8181 87.7699 39.7639 88.3119 39.7639C89.5042 39.7639 90.4798 39.942 91.2386 40.2982C92.0129 40.6388 92.5936 41.1731 92.9807 41.9009C93.3678 42.6132 93.5614 43.5346 93.5614 44.665V49.8216C93.5614 50.3946 93.422 50.8359 93.1433 51.1456C92.8645 51.4553 92.4619 51.6102 91.9354 51.6102C91.4089 51.6102 90.9986 51.4553 90.7043 51.1456C90.4256 50.8359 90.2862 50.3946 90.2862 49.8216V48.9622L90.4488 49.1016C90.3559 49.6281 90.1546 50.0849 89.8449 50.472C89.775 50.5603 89.7003 50.6442 89.6208 50.7238C89.3656 50.9791 89.0609 51.1894 88.7067 51.3547C88.2422 51.556 87.7079 51.6567 87.104 51.6567Z" stroke="black" stroke-width="1.246" mask="url(#path-7-outside-1_3293_3710)"/>
<path d="M99.1769 55.7912C98.7743 55.7912 98.4414 55.6828 98.1781 55.4661C97.9149 55.2493 97.76 54.9628 97.7136 54.6066C97.6671 54.2659 97.7291 53.902 97.8994 53.5149L99.4557 50.0772V51.5173L95.3443 42.0867C95.1895 41.6841 95.1353 41.3124 95.1817 40.9718C95.2307 40.6899 95.3476 40.4566 95.5324 40.2717C95.5811 40.2229 95.6346 40.1776 95.6927 40.1356C95.987 39.9188 96.3896 39.8104 96.9006 39.8104C97.3187 39.8104 97.6516 39.911 97.8994 40.1123C98.1627 40.2982 98.4027 40.6621 98.6195 41.204L101.36 48.1725H100.617L103.451 41.1808C103.624 40.7598 103.812 40.4477 104.016 40.2445C104.066 40.1936 104.118 40.1496 104.171 40.1123C104.45 39.911 104.821 39.8104 105.286 39.8104C105.689 39.8104 106.006 39.9188 106.238 40.1356C106.486 40.3369 106.633 40.6079 106.68 40.9485C106.742 41.2892 106.68 41.6609 106.494 42.0635L101.035 54.444C100.866 54.8286 100.679 55.1223 100.477 55.3251C100.402 55.3999 100.325 55.4624 100.245 55.5125C99.9667 55.6983 99.6105 55.7912 99.1769 55.7912Z" stroke="black" stroke-width="1.246" mask="url(#path-7-outside-1_3293_3710)"/>
<path d="M26.5307 34.9873C25.9267 34.9873 25.4622 34.8247 25.137 34.4995C24.8118 34.1743 24.6492 33.7098 24.6492 33.1058V20.493C24.6492 19.8891 24.8118 19.4245 25.137 19.0993C25.4622 18.7741 25.9267 18.6115 26.5307 18.6115H34.6372C35.1018 18.6115 35.4502 18.7354 35.6825 18.9832C35.9303 19.2155 36.0542 19.5562 36.0542 20.0052C36.0542 20.4698 35.9303 20.826 35.6825 21.0737C35.4502 21.306 35.1018 21.4221 34.6372 21.4221H28.0869V25.2548H34.103C34.583 25.2548 34.9392 25.3786 35.1715 25.6264C35.4193 25.8587 35.5431 26.2071 35.5431 26.6717C35.5431 27.1362 35.4193 27.4924 35.1715 27.7402C34.9392 27.9724 34.583 28.0886 34.103 28.0886H28.0869V32.1767H34.6372C35.1018 32.1767 35.4502 32.3006 35.6825 32.5484C35.9303 32.7806 36.0542 33.1213 36.0542 33.5704C36.0542 34.035 35.9303 34.3911 35.6825 34.6389C35.4502 34.8712 35.1018 34.9873 34.6372 34.9873H26.5307ZM42.1989 35.2428C41.3627 35.2428 40.6116 35.0802 39.9458 34.755C39.2799 34.4298 38.7611 33.9885 38.3895 33.431C38.0178 32.8736 37.832 32.2464 37.832 31.5496C37.832 30.7133 38.0488 30.0552 38.4824 29.5752C38.916 29.0796 39.6206 28.7312 40.5961 28.5299C41.5717 28.3131 42.8647 28.2047 44.4752 28.2047H45.7063V30.0165H44.4984C43.7087 30.0165 43.066 30.063 42.5705 30.1559C42.0905 30.2333 41.7421 30.3727 41.5253 30.574C41.3239 30.7753 41.2233 31.054 41.2233 31.4102C41.2233 31.8438 41.3704 32.1999 41.6646 32.4787C41.9743 32.7574 42.4157 32.8968 42.9886 32.8968C43.4377 32.8968 43.8326 32.7961 44.1733 32.5948C44.5294 32.378 44.8082 32.0915 45.0095 31.7354C45.2108 31.3637 45.3114 30.9456 45.3114 30.4811V27.8098C45.3114 27.1285 45.1566 26.6484 44.8469 26.3697C44.5372 26.0755 44.0107 25.9284 43.2674 25.9284C42.8493 25.9284 42.3924 25.9826 41.8969 26.091C41.4169 26.1839 40.8826 26.3465 40.2942 26.5788C39.9535 26.7336 39.6515 26.7723 39.3883 26.6949C39.125 26.602 38.9237 26.4471 38.7843 26.2303C38.645 25.9981 38.5753 25.7503 38.5753 25.487C38.5753 25.2083 38.6527 24.9451 38.8076 24.6973C38.9624 24.434 39.2179 24.2405 39.5741 24.1166C40.3019 23.8224 40.9833 23.6211 41.6182 23.5127C42.2686 23.4043 42.8647 23.3501 43.4067 23.3501C44.5991 23.3501 45.5747 23.5281 46.3335 23.8843C47.1077 24.225 47.6884 24.7592 48.0756 25.487C48.4627 26.1994 48.6563 27.1207 48.6563 28.2512V33.4078C48.6563 33.9808 48.5169 34.4221 48.2382 34.7318C47.9594 35.0415 47.5568 35.1964 47.0303 35.1964C46.5038 35.1964 46.0934 35.0415 45.7992 34.7318C45.5205 34.4221 45.3811 33.9808 45.3811 33.4078V32.5484L45.5437 32.6877C45.4508 33.2142 45.2495 33.671 44.9398 34.0582C44.6456 34.4298 44.2662 34.7241 43.8016 34.9408C43.337 35.1422 42.8028 35.2428 42.1989 35.2428ZM55.6395 35.2428C54.9582 35.2428 54.2536 35.1809 53.5258 35.057C52.8135 34.9331 52.1631 34.7241 51.5746 34.4298C51.2649 34.275 51.0404 34.0814 50.901 33.8491C50.7771 33.6014 50.7229 33.3536 50.7384 33.1058C50.7539 32.8581 50.8313 32.6335 50.9707 32.4322C51.1256 32.2309 51.3191 32.0993 51.5514 32.0373C51.7992 31.9599 52.0702 31.9831 52.3644 32.107C52.9993 32.3703 53.58 32.5561 54.1065 32.6645C54.633 32.7729 55.1518 32.8271 55.6628 32.8271C56.3286 32.8271 56.8087 32.7264 57.1029 32.5251C57.4126 32.3083 57.5675 32.0296 57.5675 31.6889C57.5675 31.3792 57.4668 31.1469 57.2655 30.9921C57.0642 30.8372 56.77 30.7288 56.3828 30.6669L53.9439 30.2256C52.9838 30.0552 52.2405 29.7068 51.714 29.1803C51.203 28.6383 50.9475 27.9492 50.9475 27.113C50.9475 26.3387 51.1643 25.6729 51.5979 25.1154C52.0315 24.5424 52.6276 24.1088 53.3864 23.8146C54.1607 23.5049 55.0356 23.3501 56.0112 23.3501C56.708 23.3501 57.3507 23.412 57.9391 23.5359C58.5276 23.6598 59.0928 23.8611 59.6348 24.1398C59.9135 24.2792 60.1071 24.465 60.2155 24.6973C60.3394 24.9296 60.3781 25.1696 60.3316 25.4174C60.3006 25.6651 60.2077 25.8897 60.0529 26.091C59.898 26.2923 59.6967 26.4239 59.4489 26.4858C59.2167 26.5478 58.9457 26.5168 58.636 26.3929C58.1404 26.1607 57.6836 25.9981 57.2655 25.9051C56.8474 25.7967 56.4448 25.7426 56.0577 25.7426C55.3608 25.7426 54.8575 25.8587 54.5478 26.091C54.2381 26.3078 54.0833 26.5865 54.0833 26.9272C54.0833 27.1904 54.1684 27.415 54.3388 27.6008C54.5246 27.7711 54.8033 27.8873 55.175 27.9492L57.6139 28.3905C58.6205 28.5609 59.387 28.9016 59.9135 29.4126C60.44 29.9081 60.7033 30.5895 60.7033 31.4566C60.7033 32.6335 60.2387 33.5627 59.3096 34.244C58.3959 34.9099 57.1726 35.2428 55.6395 35.2428ZM65.5909 39.3774C65.1883 39.3774 64.8554 39.269 64.5921 39.0522C64.3289 38.8354 64.174 38.5489 64.1276 38.1928C64.0811 37.8521 64.1431 37.4882 64.3134 37.1011L65.8697 33.6633V35.1034L61.7583 25.6729C61.6035 25.2702 61.5493 24.8986 61.5957 24.5579C61.6577 24.2018 61.828 23.923 62.1067 23.7217C62.401 23.5049 62.8036 23.3965 63.3146 23.3965C63.7327 23.3965 64.0656 23.4972 64.3134 23.6985C64.5767 23.8843 64.8167 24.2482 65.0335 24.7902L67.7744 31.7586H67.0311L69.8649 24.767C70.0817 24.2405 70.3217 23.8843 70.585 23.6985C70.8637 23.4972 71.2354 23.3965 71.6999 23.3965C72.1025 23.3965 72.42 23.5049 72.6523 23.7217C72.9 23.923 73.0471 24.194 73.0936 24.5347C73.1555 24.8754 73.0936 25.247 72.9078 25.6496L67.4492 38.0302C67.2169 38.5567 66.9537 38.9128 66.6594 39.0987C66.3807 39.2845 66.0245 39.3774 65.5909 39.3774ZM71.8736 50.1964C71.2851 50.1964 70.8361 50.0338 70.5264 49.7086C70.2166 49.3834 70.0618 48.9266 70.0618 48.3381V35.4466C70.0618 34.8426 70.2166 34.3858 70.5264 34.0761C70.8515 33.7664 71.3084 33.6115 71.8968 33.6115H77.5412C79.3685 33.6115 80.7777 34.0761 81.7687 35.0052C82.7598 35.9189 83.2553 37.1964 83.2553 38.8379C83.2553 40.4793 82.7598 41.7646 81.7687 42.6937C80.7777 43.6228 79.3685 44.0874 77.5412 44.0874H73.6621V48.3381C73.6621 48.9266 73.5073 49.3834 73.1976 49.7086C72.9034 50.0338 72.462 50.1964 71.8736 50.1964ZM73.6621 41.3H76.9373C77.8664 41.3 78.571 41.091 79.051 40.6729C79.5466 40.2548 79.7943 39.6431 79.7943 38.8379C79.7943 38.0326 79.5466 37.4287 79.051 37.0261C78.571 36.6234 77.8664 36.4221 76.9373 36.4221H73.6621V41.3ZM88.5188 50.2428C87.6826 50.2428 86.9316 50.0802 86.2657 49.755C85.5998 49.4298 85.0811 48.9885 84.7094 48.431C84.3378 47.8736 84.1519 47.2464 84.1519 46.5496C84.1519 45.7133 84.3687 45.0552 84.8023 44.5752C85.2359 44.0796 85.9405 43.7312 86.9161 43.5299C87.8917 43.3131 89.1847 43.2047 90.7952 43.2047H92.0262V45.0165H90.8184C90.0286 45.0165 89.386 45.063 88.8905 45.1559C88.4104 45.2333 88.062 45.3727 87.8452 45.574C87.6439 45.7753 87.5432 46.054 87.5432 46.4102C87.5432 46.8438 87.6903 47.1999 87.9846 47.4787C88.2943 47.7574 88.7356 47.8968 89.3086 47.8968C89.7576 47.8968 90.1525 47.7961 90.4932 47.5948C90.8494 47.378 91.1281 47.0915 91.3294 46.7354C91.5307 46.3637 91.6314 45.9456 91.6314 45.4811V42.8098C91.6314 42.1285 91.4765 41.6484 91.1668 41.3697C90.8571 41.0755 90.3306 40.9284 89.5873 40.9284C89.1692 40.9284 88.7124 40.9826 88.2169 41.091C87.7368 41.1839 87.2026 41.3465 86.6141 41.5788C86.2734 41.7336 85.9715 41.7723 85.7082 41.6949C85.445 41.602 85.2437 41.4471 85.1043 41.2303C84.9649 40.9981 84.8952 40.7503 84.8952 40.487C84.8952 40.2083 84.9727 39.9451 85.1275 39.6973C85.2824 39.434 85.5379 39.2405 85.894 39.1166C86.6219 38.8224 87.3032 38.6211 87.9381 38.5127C88.5885 38.4043 89.1847 38.3501 89.7267 38.3501C90.919 38.3501 91.8946 38.5281 92.6534 38.8843C93.4277 39.225 94.0084 39.7592 94.3955 40.487C94.7826 41.1994 94.9762 42.1207 94.9762 43.2512V48.4078C94.9762 48.9808 94.8368 49.4221 94.5581 49.7318C94.2794 50.0415 93.8767 50.1964 93.3502 50.1964C92.8237 50.1964 92.4134 50.0415 92.1192 49.7318C91.8404 49.4221 91.7011 48.9808 91.7011 48.4078V47.5484L91.8637 47.6877C91.7707 48.2142 91.5694 48.671 91.2597 49.0582C90.9655 49.4298 90.5861 49.7241 90.1215 49.9408C89.657 50.1422 89.1227 50.2428 88.5188 50.2428ZM100.592 54.3774C100.189 54.3774 99.8562 54.269 99.593 54.0522C99.3297 53.8354 99.1749 53.5489 99.1284 53.1928C99.0819 52.8521 99.1439 52.4882 99.3142 52.1011L100.87 48.6633V50.1034L96.7591 40.6729C96.6043 40.2702 96.5501 39.8986 96.5965 39.5579C96.6585 39.2018 96.8288 38.923 97.1076 38.7217C97.4018 38.5049 97.8044 38.3965 98.3154 38.3965C98.7335 38.3965 99.0665 38.4972 99.3142 38.6985C99.5775 38.8843 99.8175 39.2482 100.034 39.7902L102.775 46.7586H102.032L104.866 39.767C105.083 39.2405 105.323 38.8843 105.586 38.6985C105.865 38.4972 106.236 38.3965 106.701 38.3965C107.103 38.3965 107.421 38.5049 107.653 38.7217C107.901 38.923 108.048 39.194 108.094 39.5347C108.156 39.8754 108.094 40.247 107.909 40.6496L102.45 53.0302C102.218 53.5567 101.954 53.9128 101.66 54.0987C101.382 54.2845 101.025 54.3774 100.592 54.3774Z" fill="white"/>
</g>
<defs>
<linearGradient id="paint0_linear_3293_3710" x1="11" y1="31.32" x2="123.2" y2="31.32" gradientUnits="userSpaceOnUse">
<stop stop-color="#FF3200"/>
<stop offset="0.23" stop-color="#FD3200"/>
<stop offset="0.45" stop-color="#FF3200"/>
<stop offset="0.66" stop-color="#EF2F00"/>
<stop offset="0.86" stop-color="#E92E00"/>
<stop offset="1" stop-color="#E12C00"/>
</linearGradient>
<clipPath id="clip0_3293_3710">
<rect width="137.88" height="75.26" fill="white"/>
</clipPath>
</defs>
</svg>
